<?xml version="1.0" encoding="UTF-8"?>
<svg width="867px" height="480px" viewBox="0 0 867 480" version="1.1" xmlns="http://www.w3.org/2000/svg" xmlns:xlink="http://www.w3.org/1999/xlink">
    <title>no-image</title>
    <g id="no-image" stroke="none" stroke-width="1" fill="none" fill-rule="evenodd">
        <rect fill="#F5F5F5" x="0" y="0" width="867" height="480"></rect>
        <g id="Group" transform="translate(177.000000, 60.000000)" stroke="#E0E0E0" stroke-width="8">
            <path d="M0,360 L0,8 C-5.41083001e-16,3.581722 3.581722,8.11624501e-16 8,0 L504,0 C508.418278,-8.11624501e-16 512,3.581722 512,8 L512,352 C512,356.418278 508.418278,360 504,360 L36.6568542,360 C34.4477153,360 32.6568542,358.209139 32.6568542,356 C32.6568542,354.939134 33.0782816,353.921718 33.8284271,353.171573 L143.686292,243.313708 C149.93468,237.06532 160.06532,237.06532 166.313708,243.313708 L224.171573,301.171573 C225.73367,302.73367 228.26633,302.73367 229.828427,301.171573 L344.159457,186.840543 C350.219969,180.780031 359.979761,180.571584 366.293506,186.367809 L409.294915,225.844512 C410.922283,227.338489 413.452633,227.230355 414.946611,225.602987 C415.624093,224.865015 416,223.899692 416,222.897901 L416,86 L416,86" id="Path-2"></path>
            <path d="M416,86 C416,59.490332 394.509668,38 368,38 C341.490332,38 320,59.490332 320,86 C320,112.509668 341.490332,134 368,134 C380.777396,134 392.388728,129.007486 400.989686,120.866769" id="Path"></path>
        </g>
    </g>
</svg>